# This file uses centimeters as units for non-parametric coordinates.

mtllib sign1.mtl
g default
v -3.123127 0.008674 0.047528
v -3.086423 0.056753 0.048806
v -3.125000 0.092770 0.087893
v -3.166283 0.045531 0.087893
v -2.500000 0.197881 0.087893
v -2.500000 0.155072 0.047318
v -1.880847 0.297782 0.087893
v -1.874631 0.255515 0.047795
v -1.254382 0.380917 0.087893
v -1.250000 0.338258 0.047969
v -0.627347 0.435609 0.087893
v -0.625000 0.392677 0.048081
v -0.000000 0.454677 0.087893
v 0.000000 0.411641 0.048118
v 0.627348 0.435615 0.087893
v 0.625000 0.392677 0.048076
v 1.254383 0.380925 0.087893
v 1.250000 0.338257 0.047962
v 1.880847 0.297781 0.087893
v 1.874631 0.255515 0.047795
v 2.500000 0.197906 0.087893
v 2.500000 0.155071 0.047293
v 3.123127 0.008674 0.047528
v 3.166283 0.045532 0.087893
v 3.125000 0.092770 0.087893
v 3.084686 0.056973 0.047047
v -3.114501 0.688463 0.087893
v -3.125000 0.727794 0.045655
v -2.500000 0.792059 0.087893
v -2.500000 0.832628 0.045089
v -1.868771 0.893352 0.087893
v -1.874607 0.933027 0.045177
v -1.245295 0.976063 0.087893
v -1.250000 1.015721 0.045022
v -0.622466 1.030361 0.087893
v -0.625000 1.070110 0.044916
v 0.000000 1.049267 0.087893
v 0.000000 1.089061 0.044876
v 0.622466 1.030356 0.087893
v 0.625000 1.070109 0.044910
v 1.245294 0.976056 0.087893
v 1.250000 1.015721 0.045014
v 1.868771 0.893351 0.087893
v 1.874607 0.933026 0.045177
v 2.500000 0.792083 0.087893
v 2.500000 0.832629 0.045112
v 3.114492 0.688428 0.087893
v 3.125000 0.727792 0.045618
v -3.125000 0.723897 -0.047296
v -3.115049 0.682657 -0.087893
v -2.500000 0.827673 -0.047304
v -2.500000 0.784849 -0.087893
v -1.875361 0.926982 -0.047789
v -1.869252 0.884707 -0.087893
v -1.250000 1.009050 -0.047963
v -1.245689 0.966376 -0.087893
v -0.625000 1.062973 -0.048076
v -0.622690 1.020035 -0.087893
v 0.000000 1.081765 -0.048118
v 0.000000 1.038729 -0.087893
v 0.625000 1.062973 -0.048081
v 0.622690 1.020041 -0.087893
v 1.250000 1.009050 -0.047969
v 1.245690 0.966383 -0.087893
v 1.875361 0.926982 -0.047789
v 1.869252 0.884707 -0.087893
v 2.500000 0.827671 -0.047327
v 2.500000 0.784872 -0.087893
v 3.125000 0.723896 -0.047330
v 3.115057 0.682691 -0.087893
v -3.123137 0.004974 -0.045469
v -3.166093 0.038334 -0.087893
v -3.125000 0.087115 -0.087893
v -3.082974 0.053250 -0.045334
v -2.500000 0.190673 -0.087893
v -2.500000 0.150115 -0.045100
v -1.881122 0.289163 -0.087893
v -1.875385 0.249468 -0.045182
v -1.254629 0.371253 -0.087893
v -1.250000 0.331587 -0.045021
v -0.627493 0.425290 -0.087893
v -0.625000 0.385540 -0.044915
v -0.000000 0.444138 -0.087893
v 0.000000 0.404345 -0.044876
v 0.627494 0.425295 -0.087893
v 0.625000 0.385540 -0.044910
v 1.254630 0.371260 -0.087893
v 1.250000 0.331587 -0.045014
v 1.881122 0.289163 -0.087893
v 1.875385 0.249469 -0.045182
v 2.500000 0.190652 -0.087893
v 2.500000 0.150114 -0.045121
v 3.123137 0.004974 -0.045469
v 3.086348 0.052549 -0.048751
v 3.125000 0.087115 -0.087893
v 3.166093 0.038335 -0.087893
v -3.708961 -0.049985 0.088217
v -3.750000 -0.045579 0.046539
v 3.750000 -0.045579 0.046539
v 3.708961 -0.049985 0.088217
v -3.750000 -0.048325 -0.046407
v -3.708807 -0.055199 -0.087572
v 3.708807 -0.055199 -0.087572
v 3.750000 -0.048325 -0.046407
v -3.799747 -0.696623 -0.024528
v -3.758239 -0.698742 -0.068330
v -3.759239 -0.738931 -0.023213
v -3.132224 -0.718036 -0.025427
v -3.134153 -0.678104 -0.068217
v -3.092435 -0.675040 -0.026558
v -3.131658 -0.714242 0.067614
v -3.092432 -0.671225 0.065978
v -3.133514 -0.671446 0.107586
v -3.759169 -0.736196 0.064764
v -3.758236 -0.693416 0.107456
v -3.799741 -0.693950 0.063446
v 3.092435 -0.675039 -0.026559
v 3.133799 -0.678430 -0.068209
v 3.132223 -0.718035 -0.025427
v 3.759238 -0.738931 -0.023213
v 3.758276 -0.698778 -0.068329
v 3.799746 -0.696623 -0.024529
v 3.761687 -0.736211 0.067282
v 3.799740 -0.693950 0.063446
v 3.758236 -0.693415 0.107456
v 3.132155 -0.714280 0.067116
v 3.133513 -0.671446 0.107585
v 3.092432 -0.671224 0.065978
v -3.357744 0.608018 0.084682
v -3.657343 0.286923 0.073830
v -3.695684 0.317209 0.029957
v -3.396836 0.639059 0.041061
v 3.657095 0.286711 0.073849
v 3.357519 0.607823 0.084690
v 3.396836 0.639059 0.041044
v 3.695684 0.317209 0.029957
v -3.394351 0.634228 -0.049589
v -3.689965 0.309969 -0.056923
v -3.358030 0.599883 -0.088506
v -3.648868 0.271919 -0.092331
v 3.648869 0.271922 -0.092332
v 3.358042 0.599897 -0.088507
v 3.689966 0.309970 -0.056924
v 3.394351 0.634227 -0.049604
v -3.567023 0.461802 0.033598
v -3.610022 0.495694 -0.014724
v -3.597098 0.482986 -0.094163
v -3.547613 0.438631 -0.120044
v 3.566757 0.461575 0.033643
v 3.610022 0.495694 -0.014732
v 3.597098 0.482986 -0.094170
v 3.547621 0.438641 -0.120047
v -3.478776 0.531224 0.050811
v -3.521395 0.564876 0.003149
v -3.511601 0.554526 -0.079680
v -3.466023 0.513150 -0.109303
v 3.478522 0.531007 0.050846
v 3.521395 0.564876 0.003137
v 3.511600 0.554526 -0.079690
v 3.466034 0.513163 -0.109306
v -3.616019 0.385755 0.044937
v -3.657317 0.418322 -0.001807
v -3.645943 0.406795 -0.082807
v -3.598288 0.363805 -0.110934
v 3.615756 0.385531 0.044975
v 3.657317 0.418322 -0.001811
v 3.645944 0.406796 -0.082812
v 3.598293 0.363812 -0.110937
v -3.412136 0.570299 0.071247
v -3.453109 0.602736 0.025493
v -3.447179 0.595303 -0.061471
v -3.406473 0.557628 -0.095983
v 3.411898 0.570093 0.071268
v 3.453109 0.602735 0.025478
v 3.447179 0.595303 -0.061484
v 3.406485 0.557641 -0.095985
vt 0.728781 0.098289
vt 0.718714 0.103173
vt 0.713802 0.008166
vt 0.724179 0.008195
vt 0.728462 0.104660
vt 0.718714 0.109432
vt 0.723771 0.002495
vt 0.747258 0.007689
vt 0.751975 0.097798
vt 0.751941 0.104195
vt 0.746976 0.001992
vt 0.762556 0.102219
vt 0.757649 0.007283
vt 0.762556 0.108683
vt 0.812397 0.103173
vt 0.802330 0.098289
vt 0.806931 0.008195
vt 0.817309 0.008166
vt 0.812397 0.109432
vt 0.802210 0.104689
vt 0.779136 0.097798
vt 0.783852 0.007689
vt 0.807215 0.002490
vt 0.778317 0.104102
vt 0.768555 0.102219
vt 0.773464 0.007240
vt 0.784134 0.001992
vt 0.768555 0.108683
vt 0.637987 0.093285
vt 0.627593 0.093868
vt 0.631809 0.007953
vt 0.642786 0.008023
vt 0.634399 0.137928
vt 0.623457 0.141942
vt 0.604411 0.093505
vt 0.609868 0.007598
vt 0.632138 0.002355
vt 0.627193 0.151025
vt 0.615535 0.155340
vt 0.601788 0.140982
vt 0.594144 0.092594
vt 0.598943 0.007318
vt 0.610196 0.001992
vt 0.624365 0.161102
vt 0.612313 0.165593
vt 0.595333 0.153813
vt 0.592957 0.135940
vt 0.628658 0.170301
vt 0.616771 0.174760
vt 0.592501 0.163909
vt 0.588318 0.148116
vt 0.633755 0.175479
vt 0.622343 0.179777
vt 0.596113 0.173389
vt 0.586046 0.158031
vt 0.637106 0.180477
vt 0.626226 0.184590
vt 0.600654 0.178792
vt 0.603618 0.183950
vt 0.665117 0.093868
vt 0.654722 0.093285
vt 0.649924 0.008023
vt 0.660900 0.007953
vt 0.669252 0.141942
vt 0.658306 0.137900
vt 0.659943 0.002352
vt 0.688298 0.093504
vt 0.682842 0.007598
vt 0.677176 0.155340
vt 0.665507 0.150995
vt 0.690921 0.140982
vt 0.682514 0.001992
vt 0.698565 0.092594
vt 0.693766 0.007313
vt 0.680398 0.165593
vt 0.668333 0.161072
vt 0.697378 0.153813
vt 0.699752 0.135941
vt 0.675942 0.174760
vt 0.664043 0.170272
vt 0.700211 0.163909
vt 0.704392 0.148117
vt 0.670370 0.179777
vt 0.658949 0.175451
vt 0.696599 0.173388
vt 0.706665 0.158033
vt 0.655602 0.180451
vt 0.666487 0.184590
vt 0.692059 0.178792
vt 0.689096 0.183950
vt 0.578785 0.830182
vt 0.569037 0.825070
vt 0.568665 0.747363
vt 0.578785 0.747363
vt 0.545557 0.824613
vt 0.545616 0.747363
vt 0.568785 0.664495
vt 0.578785 0.665319
vt 0.534943 0.830182
vt 0.534943 0.747363
vt 0.545595 0.664595
vt 0.568828 0.581725
vt 0.578785 0.582305
vt 0.534943 0.665355
vt 0.545635 0.581725
vt 0.568856 0.498906
vt 0.578785 0.499217
vt 0.534943 0.582338
vt 0.545662 0.498906
vt 0.568865 0.416087
vt 0.578785 0.416087
vt 0.534943 0.499236
vt 0.545672 0.416087
vt 0.568855 0.333268
vt 0.578785 0.332957
vt 0.534943 0.416087
vt 0.545663 0.333268
vt 0.568826 0.250449
vt 0.578785 0.249868
vt 0.534943 0.332937
vt 0.545637 0.250449
vt 0.568785 0.167679
vt 0.578785 0.166855
vt 0.534943 0.249836
vt 0.545595 0.167579
vt 0.568659 0.084811
vt 0.578785 0.084811
vt 0.534943 0.166819
vt 0.545610 0.084811
vt 0.568598 0.007334
vt 0.578785 0.001992
vt 0.534943 0.084811
vt 0.544705 0.007114
vt 0.534943 0.001992
vt 0.487074 0.892740
vt 0.476540 0.891348
vt 0.476540 0.809921
vt 0.487216 0.809921
vt 0.488220 0.928761
vt 0.477341 0.923581
vt 0.476540 0.726276
vt 0.487194 0.727050
vt 0.510259 0.809921
vt 0.510257 0.892740
vt 0.510829 0.928432
vt 0.476540 0.643659
vt 0.487232 0.644283
vt 0.510380 0.727150
vt 0.520382 0.891421
vt 0.520382 0.809921
vt 0.520535 0.923619
vt 0.476540 0.561128
vt 0.487259 0.561464
vt 0.510423 0.644283
vt 0.520382 0.726340
vt 0.522400 0.930038
vt 0.513792 0.935432
vt 0.476540 0.478645
vt 0.487269 0.478645
vt 0.510452 0.561464
vt 0.520382 0.643711
vt 0.525722 0.937929
vt 0.518334 0.943968
vt 0.476540 0.396162
vt 0.487260 0.395826
vt 0.510462 0.478645
vt 0.520382 0.561158
vt 0.528401 0.948740
vt 0.521946 0.955298
vt 0.497676 0.945266
vt 0.492103 0.936217
vt 0.476540 0.313630
vt 0.487234 0.313007
vt 0.510453 0.395826
vt 0.520382 0.478645
vt 0.476540 0.231013
vt 0.487194 0.230240
vt 0.510425 0.313007
vt 0.520382 0.396132
vt 0.476540 0.147369
vt 0.487210 0.147369
vt 0.510380 0.230140
vt 0.520382 0.313578
vt 0.476540 0.065942
vt 0.487084 0.064550
vt 0.510265 0.147369
vt 0.520382 0.230950
vt 0.477339 0.033739
vt 0.488225 0.028529
vt 0.510266 0.064550
vt 0.520382 0.147369
vt 0.510833 0.028858
vt 0.520382 0.065867
vt 0.520535 0.033669
vt 0.513796 0.021858
vt 0.522400 0.027250
vt 0.518336 0.013321
vt 0.525723 0.019359
vt 0.521948 0.001992
vt 0.528402 0.008548
vt 0.492107 0.021072
vt 0.497679 0.012023
vt 0.885663 0.085153
vt 0.874411 0.085021
vt 0.874439 0.002323
vt 0.885111 0.002067
vt 0.908316 0.001992
vt 0.907605 0.085144
vt 0.918285 0.002238
vt 0.918253 0.085020
vt 0.834008 0.085403
vt 0.823338 0.085194
vt 0.823308 0.002444
vt 0.834560 0.002316
vt 0.857130 0.001992
vt 0.857089 0.085412
vt 0.867150 0.002449
vt 0.867182 0.085232
vt 0.324539 0.991473
vt 0.337196 0.919563
vt 0.343455 0.914092
vt 0.422391 0.912701
vt 0.411731 0.944933
vt 0.406733 0.952141
vt 0.401555 0.960971
vt 0.392356 0.972665
vt 0.382279 0.979157
vt 0.369183 0.984633
vt 0.242189 0.915220
vt 0.239278 0.998003
vt 0.357384 0.831273
vt 0.436119 0.831273
vt 0.370622 0.749229
vt 0.449541 0.747629
vt 0.381638 0.666216
vt 0.460501 0.665012
vt 0.388885 0.583127
vt 0.467696 0.582480
vt 0.391412 0.499997
vt 0.470201 0.499997
vt 0.388886 0.416867
vt 0.467695 0.417514
vt 0.381639 0.333779
vt 0.460500 0.334983
vt 0.370622 0.250766
vt 0.449541 0.252366
vt 0.357387 0.168721
vt 0.436122 0.168721
vt 0.343455 0.085902
vt 0.422386 0.087295
vt 0.337196 0.080432
vt 0.324539 0.008522
vt 0.369155 0.015394
vt 0.382249 0.020872
vt 0.392326 0.027365
vt 0.401526 0.039057
vt 0.406706 0.047885
vt 0.411705 0.055091
vt 0.242189 0.084774
vt 0.239278 0.001992
vt 0.049016 0.912779
vt 0.035475 0.831278
vt 0.114209 0.831278
vt 0.127932 0.914097
vt 0.022242 0.747698
vt 0.101158 0.749271
vt 0.103443 0.983515
vt 0.091267 0.976813
vt 0.081352 0.970098
vt 0.071478 0.959287
vt 0.065584 0.951395
vt 0.059984 0.944976
vt 0.134396 0.919542
vt 0.146790 0.991458
vt 0.011420 0.665069
vt 0.090280 0.666254
vt 0.229331 0.915310
vt 0.232066 0.998008
vt 0.004310 0.582515
vt 0.083120 0.583152
vt 0.001833 0.500003
vt 0.080622 0.500003
vt 0.004309 0.417490
vt 0.083119 0.416853
vt 0.011419 0.334936
vt 0.090279 0.333751
vt 0.022242 0.252307
vt 0.101158 0.250734
vt 0.035471 0.168726
vt 0.114212 0.168726
vt 0.049012 0.087225
vt 0.127931 0.085908
vt 0.059983 0.055027
vt 0.065582 0.048608
vt 0.071476 0.040717
vt 0.081351 0.029906
vt 0.091266 0.023191
vt 0.103443 0.016490
vt 0.146790 0.008547
vt 0.134395 0.080463
vt 0.229374 0.084742
vt 0.232071 0.001992
vn 0.939021 0.002395 0.343851
vn 0.001879 0.031467 0.999503
vn 0.063564 -0.028687 0.997565
vn 0.954593 0.005798 0.297857
vn 0.206366 -0.898547 0.387332
vn 0.933963 -0.016626 -0.356984
vn 0.211392 -0.926472 -0.311388
vn -0.019570 -0.004128 0.999800
vn 0.152231 -0.929310 0.336466
vn 0.010191 -0.061911 0.998030
vn 0.135683 -0.929506 0.342940
vn 0.009093 -0.062055 0.998031
vn 0.101864 -0.931138 0.350151
vn 0.006737 -0.061399 0.998091
vn 0.054615 -0.933469 0.354476
vn 0.003575 -0.060924 0.998136
vn 0.000002 -0.934489 0.355993
vn 0.000000 -0.060757 0.998153
vn -0.054612 -0.933456 0.354511
vn -0.003575 -0.060931 0.998136
vn -0.101864 -0.931124 0.350188
vn -0.006738 -0.061406 0.998090
vn -0.135677 -0.929489 0.342991
vn -0.009094 -0.062069 0.998030
vn -0.152108 -0.929816 0.335119
vn -0.010253 -0.062541 0.997990
vn -0.206507 -0.902533 0.377874
vn 0.019406 -0.004574 0.999801
vn -0.001997 0.031420 0.999504
vn -0.938819 0.003110 0.344397
vn -0.954506 0.005825 0.298136
vn -0.063664 -0.027190 0.997601
vn -0.211101 -0.922884 -0.322060
vn -0.935237 -0.016627 -0.353633
vn -0.204719 0.945619 0.252776
vn -0.027500 0.067393 0.997348
vn -0.011065 0.067359 0.997667
vn -0.156185 0.955101 0.251772
vn -0.009990 0.068176 0.997623
vn -0.140049 0.959470 0.244549
vn -0.007523 0.068624 0.997614
vn -0.105612 0.965707 0.237183
vn -0.004051 0.069116 0.997600
vn -0.056782 0.970894 0.232681
vn 0.000000 0.069290 0.997597
vn 0.000001 0.972928 0.231109
vn 0.004052 0.069124 0.997600
vn 0.056784 0.970888 0.232704
vn 0.007524 0.068632 0.997614
vn 0.105610 0.965702 0.237206
vn 0.009987 0.068170 0.997624
vn 0.140043 0.959482 0.244502
vn 0.011068 0.067360 0.997667
vn 0.156193 0.955108 0.251738
vn 0.027499 0.067415 0.997346
vn 0.204759 0.945551 0.252995
vn -0.003499 0.046737 -0.998901
vn -0.198961 0.924465 -0.325238
vn -0.151702 0.930324 -0.333892
vn -0.010371 0.063725 -0.997914
vn -0.135467 0.929921 -0.341900
vn -0.009268 0.063805 -0.997919
vn -0.101753 0.932301 -0.347075
vn -0.006938 0.063719 -0.997944
vn -0.054587 0.934950 -0.350555
vn -0.003718 0.063820 -0.997954
vn -0.000002 0.936088 -0.351765
vn -0.000000 0.063858 -0.997959
vn 0.054585 0.934957 -0.350537
vn 0.003717 0.063814 -0.997955
vn 0.101756 0.932308 -0.347056
vn 0.006937 0.063712 -0.997944
vn 0.135468 0.929944 -0.341837
vn 0.009265 0.063792 -0.997920
vn 0.151701 0.930368 -0.333770
vn 0.010364 0.063693 -0.997916
vn 0.198966 0.924509 -0.325108
vn 0.003491 0.046702 -0.998903
vn 0.041182 -0.024198 -0.998859
vn 0.958097 -0.008914 -0.286306
vn 0.070775 -0.085837 -0.993792
vn 0.019825 -0.037103 -0.999115
vn 0.010728 -0.066075 -0.997757
vn 0.155714 -0.954718 -0.253508
vn 0.009631 -0.066369 -0.997749
vn 0.139735 -0.959348 -0.245206
vn 0.007208 -0.066238 -0.997778
vn 0.105325 -0.965024 -0.240075
vn 0.003847 -0.066081 -0.997807
vn 0.056632 -0.970037 -0.236264
vn 0.000000 -0.066028 -0.997818
vn 0.000002 -0.972003 -0.234967
vn -0.003847 -0.066087 -0.997806
vn -0.056629 -0.970028 -0.236301
vn -0.007209 -0.066245 -0.997777
vn -0.105326 -0.965014 -0.240115
vn -0.009631 -0.066362 -0.997749
vn -0.139742 -0.959349 -0.245196
vn -0.010613 -0.064857 -0.997838
vn -0.156133 -0.954673 -0.253420
vn -0.019540 -0.036279 -0.999151
vn -0.041000 -0.024118 -0.998868
vn -0.070682 -0.085757 -0.993806
vn -0.958322 -0.008914 -0.285551
vn -0.073683 0.036803 0.996602
vn -0.952387 0.109095 0.284704
vn -0.955628 0.031659 0.292871
vn -0.066038 -0.031336 0.997325
vn 0.952285 0.109139 0.285029
vn 0.073689 0.036809 0.996602
vn 0.065812 -0.030915 0.997353
vn 0.956112 0.031473 0.291308
vn -0.944650 0.092258 -0.314842
vn -0.047059 -0.019483 -0.998702
vn -0.063872 -0.088375 -0.994037
vn -0.960231 0.016810 -0.278701
vn 0.047039 -0.019485 -0.998703
vn 0.944673 0.092267 -0.314770
vn 0.960128 0.017411 -0.279019
vn 0.063843 -0.088340 -0.994042
vn -0.018848 -0.967350 -0.252744
vn -0.017811 -0.947806 0.318351
vn 0.082078 -0.963185 -0.256005
vn 0.080611 -0.942612 0.324012
vn -0.081627 -0.963951 -0.253249
vn -0.081202 -0.943135 0.322340
vn 0.018576 -0.968391 -0.248743
vn 0.016930 -0.947581 0.319067
vn -0.054100 0.060763 0.996685
vn -0.051111 0.041268 0.997840
vn -0.054727 0.044537 0.997508
vn -0.060106 0.049103 0.996984
vn -0.056752 0.045743 0.997340
vn -0.079340 0.043713 0.995889
vn -0.012674 0.008746 -0.999882
vn -0.019672 -0.010175 -0.999755
vn -0.018865 -0.009010 -0.999781
vn -0.015142 -0.011540 -0.999819
vn -0.011743 -0.016350 -0.999797
vn 0.015616 -0.012714 -0.999797
vn 0.079336 0.043735 0.995888
vn 0.056730 0.045767 0.997340
vn 0.060109 0.049108 0.996983
vn 0.054738 0.044526 0.997507
vn 0.051113 0.041257 0.997840
vn 0.054106 0.060776 0.996684
vn -0.015621 -0.012712 -0.999797
vn 0.011739 -0.016349 -0.999797
vn 0.015137 -0.011537 -0.999819
vn 0.018861 -0.009006 -0.999781
vn 0.019667 -0.010171 -0.999755
vn 0.012666 0.008764 -0.999881
vn -0.850623 0.472235 0.231159
vn -0.932375 0.231674 0.277497
vn -0.768104 0.305441 -0.562781
vn -0.924368 0.180311 -0.336201
vn 0.575982 0.750020 0.325137
vn 0.368135 0.893248 0.258039
vn 0.418537 0.790891 -0.446451
vn 0.342112 0.885197 -0.315255
vn -0.368039 0.893592 0.256985
vn 0.931962 0.231914 0.278682
vn -0.342083 0.885170 -0.315363
vn 0.924373 0.180309 -0.336189
vn -0.726467 0.664749 0.174228
vn -0.592083 0.756508 0.277728
vn -0.566078 0.527343 -0.633613
vn -0.427668 0.716155 -0.551564
vn 0.726244 0.664486 0.176148
vn 0.849990 0.472368 0.233206
vn 0.566115 0.527357 -0.633568
vn 0.768128 0.305442 -0.562748
vn -0.575937 0.750950 0.323063
vn -0.418509 0.790872 -0.446510
vn 0.592046 0.755750 0.279864
vn 0.427700 0.716172 -0.551517
s 1
g pCube1
usemtl lambert2SG
f 1/1/1 4/2/2 113/3/3 112/4/4
f 2/5/5 1/1/1 71/9/6 74/10/7
f 3/91/8 2/92/5 6/93/9 5/94/10
f 5/94/10 6/93/9 8/97/11 7/98/12
f 7/98/12 8/97/11 10/102/13 9/103/14
f 9/103/14 10/102/13 12/106/15 11/107/16
f 11/107/16 12/106/15 14/110/17 13/111/18
f 13/111/18 14/110/17 16/114/19 15/115/20
f 15/115/20 16/114/19 18/118/21 17/119/22
f 17/119/22 18/118/21 20/122/23 19/123/24
f 19/123/24 20/122/23 22/126/25 21/127/26
f 21/127/26 22/126/25 26/130/27 25/131/28
f 24/15/29 23/16/30 128/17/31 127/18/32
f 23/16/30 26/20/27 94/24/33 93/21/34
f 28/135/35 27/136/36 29/137/37 30/138/38
f 30/138/38 29/137/37 31/141/39 32/142/40
f 32/142/40 31/141/39 33/146/41 34/147/42
f 34/147/42 33/146/41 35/152/43 36/153/44
f 36/153/44 35/152/43 37/158/45 38/159/46
f 38/159/46 37/158/45 39/164/47 40/165/48
f 40/165/48 39/164/47 41/172/49 42/173/50
f 42/173/50 41/172/49 43/176/51 44/177/52
f 44/177/52 43/176/51 45/180/53 46/181/54
f 46/181/54 45/180/53 47/184/55 48/185/56
f 50/149/57 49/144/58 51/143/59 52/150/60
f 52/150/60 51/143/59 53/148/61 54/155/62
f 54/155/62 53/148/61 55/154/63 56/161/64
f 56/161/64 55/154/63 57/160/65 58/167/66
f 58/167/66 57/160/65 59/166/67 60/175/68
f 60/175/68 59/166/67 61/174/69 62/179/70
f 62/179/70 61/174/69 63/178/71 64/183/72
f 64/183/72 63/178/71 65/182/73 66/187/74
f 66/187/74 65/182/73 67/186/75 68/191/76
f 68/191/76 67/186/75 69/190/77 70/193/78
f 72/12/79 71/9/6 110/8/80 109/13/81
f 74/95/7 73/99/82 75/100/83 76/96/84
f 76/96/84 75/100/83 77/104/85 78/101/86
f 78/101/86 77/104/85 79/108/87 80/105/88
f 80/105/88 79/108/87 81/112/89 82/109/90
f 82/109/90 81/112/89 83/116/91 84/113/92
f 84/113/92 83/116/91 85/120/93 86/117/94
f 86/117/94 85/120/93 87/124/95 88/121/96
f 88/121/96 87/124/95 89/128/97 90/125/98
f 90/125/98 89/128/97 91/132/99 92/129/100
f 92/129/100 91/132/99 95/134/101 94/133/33
f 93/21/34 96/25/102 118/26/103 117/22/104
f 97/29/105 98/30/106 116/31/107 115/32/108
f 99/60/109 100/61/110 125/62/111 124/63/112
f 101/35/113 102/41/114 106/42/115 105/36/116
f 103/73/117 104/67/118 122/68/119 121/74/120
f 105/36/116 107/43/121 114/37/122 116/31/107
f 107/203/121 106/204/115 109/205/81 108/206/123
f 108/11/123 110/8/80 112/4/4 111/7/124
f 111/207/124 113/209/3 115/210/108 114/208/122
f 117/22/104 119/27/125 126/23/126 128/17/31
f 119/211/125 118/212/103 121/213/120 120/214/127
f 120/72/127 122/68/119 124/63/112 123/66/128
f 123/215/128 125/217/111 127/218/32 126/216/126
f 97/219/105 4/220/2 3/221/8 27/222/36 129/223/129 169/224/130 153/225/131 145/226/132 161/227/133 130/228/134
f 3/221/8 5/231/10 29/232/37 27/222/36
f 5/231/10 7/233/12 31/234/39 29/232/37
f 7/233/12 9/235/14 33/236/41 31/234/39
f 9/235/14 11/237/16 35/238/43 33/236/41
f 11/237/16 13/239/18 37/240/45 35/238/43
f 13/239/18 15/241/20 39/242/47 37/240/45
f 15/241/20 17/243/22 41/244/49 39/242/47
f 17/243/22 19/245/24 43/246/51 41/244/49
f 19/245/24 21/247/26 45/248/53 43/246/51
f 21/247/26 25/249/28 47/250/55 45/248/53
f 28/135/35 30/138/38 51/143/59 49/144/58
f 30/138/38 32/142/40 53/148/61 51/143/59
f 32/142/40 34/147/42 55/154/63 53/148/61
f 34/147/42 36/153/44 57/160/65 55/154/63
f 36/153/44 38/159/46 59/166/67 57/160/65
f 38/159/46 40/165/48 61/174/69 59/166/67
f 40/165/48 42/173/50 63/178/71 61/174/69
f 42/173/50 44/177/52 65/182/73 63/178/71
f 44/177/52 46/181/54 67/186/75 65/182/73
f 46/181/54 48/185/56 69/190/77 67/186/75
f 50/261/57 52/262/60 75/263/83 73/264/82
f 52/262/60 54/265/62 77/266/85 75/263/83
f 54/265/62 56/275/64 79/276/87 77/266/85
f 56/275/64 58/279/66 81/280/89 79/276/87
f 58/279/66 60/281/68 83/282/91 81/280/89
f 60/281/68 62/283/70 85/284/93 83/282/91
f 62/283/70 64/285/72 87/286/95 85/284/93
f 64/285/72 66/287/74 89/288/97 87/286/95
f 66/287/74 68/289/76 91/290/99 89/288/97
f 68/289/76 70/291/78 95/292/101 91/290/99
f 70/291/78 142/293/135 176/294/136 160/295/137 152/296/138 168/297/139 141/298/140 103/299/117 96/300/102 95/292/101
f 107/203/121 108/206/123 111/207/124 114/208/122
f 76/96/84 78/101/86 8/97/11 6/93/9
f 78/101/86 80/105/88 10/102/13 8/97/11
f 80/105/88 82/109/90 12/106/15 10/102/13
f 82/109/90 84/113/92 14/110/17 12/106/15
f 84/113/92 86/117/94 16/114/19 14/110/17
f 86/117/94 88/121/96 18/118/21 16/114/19
f 88/121/96 90/125/98 20/122/23 18/118/21
f 90/125/98 92/129/100 22/126/25 20/122/23
f 119/211/125 120/214/127 123/215/128 126/216/126
f 102/274/114 72/273/79 109/277/81 106/278/115
f 113/229/3 4/220/2 97/219/105 115/230/108
f 98/30/106 101/35/113 105/36/116 116/31/107
f 118/301/103 96/300/102 103/299/117 121/302/120
f 104/67/118 99/60/109 124/63/112 122/68/119
f 100/252/110 24/251/29 127/259/32 125/260/111
f 25/249/28 24/251/29 100/252/110 133/253/141 165/254/142 149/255/143 157/256/144 173/257/145 134/258/146 47/250/55
f 110/8/80 71/9/6 1/1/1 112/4/4
f 6/93/9 2/92/5 74/95/7 76/96/84
f 92/129/100 94/133/33 26/130/27 22/126/25
f 128/17/31 23/16/30 93/21/34 117/22/104
f 1/1/1 2/5/5 3/6/8 4/2/2
f 23/16/30 24/15/29 25/19/28 26/20/27
f 71/9/6 72/12/79 73/14/82 74/10/7
f 93/21/34 94/24/33 95/28/101 96/25/102
f 105/36/116 106/42/115 107/43/121
f 108/11/123 109/13/81 110/8/80
f 111/7/124 112/4/4 113/3/3
f 114/37/122 115/32/108 116/31/107
f 117/22/104 118/26/103 119/27/125
f 120/72/127 121/74/120 122/68/119
f 123/66/128 124/63/112 125/62/111
f 126/23/126 127/18/32 128/17/31
f 140/267/147 164/268/148 148/269/149 156/270/150 172/271/151 139/272/152 50/261/57 73/264/82 72/273/79 102/274/114
f 130/33/134 161/38/133 162/39/153 131/34/154
f 131/34/154 162/39/153 163/46/155 138/40/156
f 134/87/146 173/84/145 174/83/157 135/88/158
f 135/88/158 174/83/157 175/89/159 144/90/160
f 138/40/156 163/46/155 164/51/148 140/47/147
f 175/195/159 176/196/136 142/194/135 144/192/160
f 130/33/134 131/34/154 98/30/106 97/29/105
f 132/139/161 129/140/129 27/136/36 28/135/35
f 48/185/56 47/184/55 134/188/146 135/189/158
f 136/64/162 133/65/141 100/61/110 99/60/109
f 138/40/156 140/47/147 102/41/114 101/35/113
f 139/151/152 137/145/163 49/144/58 50/149/57
f 70/193/78 69/190/77 144/192/160 142/194/135
f 141/78/140 143/71/164 104/67/118 103/73/117
f 132/139/161 28/135/35 49/144/58 137/145/163
f 48/185/56 135/189/158 144/192/160 69/190/77
f 131/34/154 138/40/156 101/35/113 98/30/106
f 136/64/162 99/60/109 104/67/118 143/71/164
f 146/45/165 145/44/132 153/48/131 154/49/166
f 147/50/167 146/45/165 154/49/166 155/54/168
f 148/168/149 147/169/167 155/163/168 156/162/150
f 150/75/169 149/76/143 165/70/142 166/69/170
f 151/81/171 150/75/169 166/69/170 167/77/172
f 167/77/172 168/82/139 152/86/138 151/81/171
f 154/49/166 153/48/131 169/52/130 170/53/173
f 155/163/168 154/170/166 170/171/173 171/157/174
f 156/162/150 155/163/168 171/157/174 172/156/151
f 158/79/175 157/80/144 149/76/143 150/75/169
f 159/85/176 158/79/175 150/75/169 151/81/171
f 151/199/171 152/200/138 160/198/137 159/197/176
f 162/39/153 161/38/133 145/44/132 146/45/165
f 163/46/155 162/39/153 146/45/165 147/50/167
f 164/51/148 163/46/155 147/50/167 148/55/149
f 166/69/170 165/70/142 133/65/141 136/64/162
f 167/77/172 166/69/170 136/64/162 143/71/164
f 141/78/140 168/82/139 167/77/172 143/71/164
f 170/53/173 169/52/130 129/56/129 132/57/161
f 171/58/174 170/53/173 132/57/161 137/59/163
f 172/156/151 171/157/174 137/145/163 139/151/152
f 174/83/157 173/84/145 157/80/144 158/79/175
f 175/195/159 174/201/157 158/202/175 159/197/176
f 159/197/176 160/198/137 176/196/136 175/195/159
